<mxfile host="app.diagrams.net" modified="2024-04-02T16:50:37.622Z" agent="Mozilla/5.0 (Windows NT 10.0; Win64; x64) AppleWebKit/537.36 (KHTML, like Gecko) Chrome/123.0.0.0 Safari/537.36 Edg/123.0.0.0" etag="YOHpB9HRuCkfvnq6tMSr" version="24.2.1" type="device">
  <diagram name="Page-1" id="yoR4f81BSue-psXf4Bo5">
    <mxGraphModel dx="1386" dy="1830" grid="1" gridSize="10" guides="1" tooltips="1" connect="1" arrows="1" fold="1" page="1" pageScale="1" pageWidth="850" pageHeight="1100" math="0" shadow="0">
      <root>
        <mxCell id="0" />
        <mxCell id="1" parent="0" />
        <mxCell id="1g0vZA3ziAIKpFJKvP0T-1" value="User" style="shape=umlActor;verticalLabelPosition=bottom;verticalAlign=top;html=1;fontStyle=1" parent="1" vertex="1">
          <mxGeometry x="80" y="-542.5" width="30" height="60" as="geometry" />
        </mxCell>
        <mxCell id="1g0vZA3ziAIKpFJKvP0T-3" value="Administrator" style="shape=umlActor;verticalLabelPosition=bottom;verticalAlign=top;html=1;fontStyle=1" parent="1" vertex="1">
          <mxGeometry x="80" y="147.5" width="30" height="60" as="geometry" />
        </mxCell>
        <mxCell id="1g0vZA3ziAIKpFJKvP0T-5" value="Content Creator" style="shape=umlActor;verticalLabelPosition=bottom;verticalAlign=top;html=1;fontStyle=1" parent="1" vertex="1">
          <mxGeometry x="80" y="-44.22000000000003" width="30" height="60" as="geometry" />
        </mxCell>
        <mxCell id="SnJYljw1024A2q-Mxv-v-9" value="" style="endArrow=none;html=1;rounded=0;fontStyle=1;exitX=0;exitY=0.5;exitDx=0;exitDy=0;" parent="1" source="o7bP2TjaXnmZU9dKq1O--1" target="1g0vZA3ziAIKpFJKvP0T-1" edge="1">
          <mxGeometry width="50" height="50" relative="1" as="geometry">
            <mxPoint x="170" y="-382.5" as="sourcePoint" />
            <mxPoint x="380" y="-585" as="targetPoint" />
          </mxGeometry>
        </mxCell>
        <mxCell id="opZUWP1MInvZ8Omkorfc-5" value="" style="endArrow=none;html=1;rounded=0;fontStyle=1;entryX=0;entryY=0.5;entryDx=0;entryDy=0;" parent="1" source="1g0vZA3ziAIKpFJKvP0T-3" target="o7bP2TjaXnmZU9dKq1O--27" edge="1">
          <mxGeometry width="50" height="50" relative="1" as="geometry">
            <mxPoint x="170" y="198" as="sourcePoint" />
            <mxPoint x="230" y="317.5" as="targetPoint" />
          </mxGeometry>
        </mxCell>
        <mxCell id="ntI7J29-e9_nR_7QldBN-2" value="" style="endArrow=classic;html=1;rounded=0;exitX=0.5;exitY=1;exitDx=0;exitDy=0;fontStyle=1;entryX=0.5;entryY=0;entryDx=0;entryDy=0;" parent="1" source="o7bP2TjaXnmZU9dKq1O--2" target="o7bP2TjaXnmZU9dKq1O--1" edge="1">
          <mxGeometry width="50" height="50" relative="1" as="geometry">
            <mxPoint x="659.9964068711927" y="-329.0142712474617" as="sourcePoint" />
            <mxPoint x="755.0661021688823" y="-392.497483922396" as="targetPoint" />
          </mxGeometry>
        </mxCell>
        <mxCell id="ntI7J29-e9_nR_7QldBN-3" value="&amp;lt;&amp;lt;extend&amp;gt;&amp;gt;" style="edgeLabel;html=1;align=center;verticalAlign=middle;resizable=0;points=[];fontStyle=0" parent="ntI7J29-e9_nR_7QldBN-2" vertex="1" connectable="0">
          <mxGeometry x="-0.1487" y="2" relative="1" as="geometry">
            <mxPoint as="offset" />
          </mxGeometry>
        </mxCell>
        <mxCell id="SnJYljw1024A2q-Mxv-v-10" value="Reset Password" style="ellipse;whiteSpace=wrap;html=1;fillColor=#647687;strokeColor=#314354;fontStyle=1;fontColor=#ffffff;" parent="1" vertex="1">
          <mxGeometry x="342.5" y="360" width="120" height="80" as="geometry" />
        </mxCell>
        <mxCell id="SnJYljw1024A2q-Mxv-v-12" value="Deactivate User" style="ellipse;whiteSpace=wrap;html=1;fillColor=#647687;strokeColor=#314354;fontStyle=1;fontColor=#ffffff;" parent="1" vertex="1">
          <mxGeometry x="487.5" y="360" width="120" height="80" as="geometry" />
        </mxCell>
        <mxCell id="1g0vZA3ziAIKpFJKvP0T-42" value="Activate User" style="ellipse;whiteSpace=wrap;html=1;fillColor=#647687;strokeColor=#314354;fontStyle=1;fontColor=#ffffff;" parent="1" vertex="1">
          <mxGeometry x="202.5" y="360" width="120" height="80" as="geometry" />
        </mxCell>
        <mxCell id="Dzd_2CjebibT4iyNx69e-1" value="&lt;span&gt;Streaming System&lt;/span&gt;" style="shape=umlFrame;whiteSpace=wrap;html=1;pointerEvents=0;width=150;height=30;fontStyle=1" parent="1" vertex="1">
          <mxGeometry x="170" y="-720" width="550" height="1180" as="geometry" />
        </mxCell>
        <mxCell id="Dzd_2CjebibT4iyNx69e-17" value="" style="endArrow=none;html=1;rounded=0;strokeColor=#FFFFFF;" parent="1" edge="1">
          <mxGeometry width="50" height="50" relative="1" as="geometry">
            <mxPoint x="20" y="450" as="sourcePoint" />
            <mxPoint x="20" y="-620" as="targetPoint" />
          </mxGeometry>
        </mxCell>
        <mxCell id="o7bP2TjaXnmZU9dKq1O--1" value="Manage Content Comments" style="ellipse;whiteSpace=wrap;html=1;fillColor=#6d8764;strokeColor=#3A5431;fontStyle=1;fontColor=#ffffff;" parent="1" vertex="1">
          <mxGeometry x="345" y="-552.5" width="120" height="80" as="geometry" />
        </mxCell>
        <mxCell id="o7bP2TjaXnmZU9dKq1O--2" value="Search Content" style="ellipse;whiteSpace=wrap;html=1;fillColor=#76608a;strokeColor=#432D57;fontStyle=1;fontColor=#ffffff;" parent="1" vertex="1">
          <mxGeometry x="345" y="-700" width="120" height="80" as="geometry" />
        </mxCell>
        <mxCell id="o7bP2TjaXnmZU9dKq1O--6" value="Edit&amp;nbsp;&lt;div&gt;Content Creator&lt;br&gt;User Data&lt;/div&gt;" style="ellipse;whiteSpace=wrap;html=1;fillColor=#647687;strokeColor=#314354;fontStyle=1;fontColor=#ffffff;" parent="1" vertex="1">
          <mxGeometry x="545" y="-150" width="120" height="80" as="geometry" />
        </mxCell>
        <mxCell id="o7bP2TjaXnmZU9dKq1O--10" value="Manage&amp;nbsp;&lt;div&gt;Content Creator Account&lt;/div&gt;" style="ellipse;whiteSpace=wrap;html=1;fillColor=#647687;strokeColor=#314354;fontStyle=1;fontColor=#ffffff;" parent="1" vertex="1">
          <mxGeometry x="360" y="-54.22000000000003" width="120" height="80" as="geometry" />
        </mxCell>
        <mxCell id="o7bP2TjaXnmZU9dKq1O--12" value="Manage &lt;br&gt;End User&lt;br&gt;Account" style="ellipse;whiteSpace=wrap;html=1;fillColor=#647687;strokeColor=#314354;fontStyle=1;fontColor=#ffffff;" parent="1" vertex="1">
          <mxGeometry x="190" y="-260" width="120" height="80" as="geometry" />
        </mxCell>
        <mxCell id="o7bP2TjaXnmZU9dKq1O--14" value="Delete User Account" style="ellipse;whiteSpace=wrap;html=1;fillColor=#647687;strokeColor=#314354;fontStyle=1;fontColor=#ffffff;" parent="1" vertex="1">
          <mxGeometry x="270" y="-450" width="120" height="80" as="geometry" />
        </mxCell>
        <mxCell id="o7bP2TjaXnmZU9dKq1O--15" value="End User" style="shape=umlActor;verticalLabelPosition=bottom;verticalAlign=top;html=1;fontStyle=1" parent="1" vertex="1">
          <mxGeometry x="110" y="-250" width="30" height="60" as="geometry" />
        </mxCell>
        <mxCell id="o7bP2TjaXnmZU9dKq1O--19" value="" style="endArrow=block;endSize=16;endFill=0;html=1;rounded=0;fillColor=#647687;strokeColor=#314354;" parent="1" edge="1">
          <mxGeometry width="160" relative="1" as="geometry">
            <mxPoint x="120" y="-260" as="sourcePoint" />
            <mxPoint x="109.36" y="-462.5" as="targetPoint" />
          </mxGeometry>
        </mxCell>
        <mxCell id="o7bP2TjaXnmZU9dKq1O--22" value="" style="endArrow=block;endSize=16;endFill=0;html=1;rounded=0;fillColor=#647687;strokeColor=#314354;" parent="1" edge="1">
          <mxGeometry width="160" relative="1" as="geometry">
            <mxPoint x="90" y="-60" as="sourcePoint" />
            <mxPoint x="90" y="-452.5" as="targetPoint" />
            <Array as="points">
              <mxPoint x="70" y="-180" />
            </Array>
          </mxGeometry>
        </mxCell>
        <mxCell id="o7bP2TjaXnmZU9dKq1O--23" value="" style="endArrow=block;endSize=16;endFill=0;html=1;rounded=0;fillColor=#647687;strokeColor=#314354;" parent="1" edge="1">
          <mxGeometry width="160" relative="1" as="geometry">
            <mxPoint x="90" y="140" as="sourcePoint" />
            <mxPoint x="80" y="-472.5" as="targetPoint" />
            <Array as="points">
              <mxPoint x="40" y="30" />
            </Array>
          </mxGeometry>
        </mxCell>
        <mxCell id="o7bP2TjaXnmZU9dKq1O--24" value="" style="endArrow=none;html=1;rounded=0;fontStyle=1;entryX=0;entryY=0.5;entryDx=0;entryDy=0;" parent="1" source="1g0vZA3ziAIKpFJKvP0T-5" target="o7bP2TjaXnmZU9dKq1O--10" edge="1">
          <mxGeometry width="50" height="50" relative="1" as="geometry">
            <mxPoint x="120" y="195.77999999999997" as="sourcePoint" />
            <mxPoint x="475" y="195.77999999999997" as="targetPoint" />
          </mxGeometry>
        </mxCell>
        <mxCell id="o7bP2TjaXnmZU9dKq1O--25" value="" style="endArrow=none;html=1;rounded=0;fontStyle=1;" parent="1" source="o7bP2TjaXnmZU9dKq1O--14" target="1g0vZA3ziAIKpFJKvP0T-1" edge="1">
          <mxGeometry width="50" height="50" relative="1" as="geometry">
            <mxPoint x="345" y="-402.5" as="sourcePoint" />
            <mxPoint x="120" y="-517.5" as="targetPoint" />
          </mxGeometry>
        </mxCell>
        <mxCell id="o7bP2TjaXnmZU9dKq1O--26" value="" style="endArrow=none;html=1;rounded=0;fontStyle=1;entryX=0;entryY=0.5;entryDx=0;entryDy=0;" parent="1" source="o7bP2TjaXnmZU9dKq1O--15" target="o7bP2TjaXnmZU9dKq1O--12" edge="1">
          <mxGeometry width="50" height="50" relative="1" as="geometry">
            <mxPoint x="360" y="-182.5" as="sourcePoint" />
            <mxPoint x="455" y="-182.5" as="targetPoint" />
          </mxGeometry>
        </mxCell>
        <mxCell id="o7bP2TjaXnmZU9dKq1O--27" value="Manage Another Users Accounts" style="ellipse;whiteSpace=wrap;html=1;fillColor=#647687;strokeColor=#314354;fontStyle=1;fontColor=#ffffff;" parent="1" vertex="1">
          <mxGeometry x="342.5" y="230" width="120" height="80" as="geometry" />
        </mxCell>
        <mxCell id="o7bP2TjaXnmZU9dKq1O--28" value="" style="endArrow=block;endSize=16;endFill=0;html=1;rounded=0;fillColor=#647687;strokeColor=#314354;exitX=0.5;exitY=0;exitDx=0;exitDy=0;entryX=0.5;entryY=1;entryDx=0;entryDy=0;" parent="1" source="SnJYljw1024A2q-Mxv-v-10" target="o7bP2TjaXnmZU9dKq1O--27" edge="1">
          <mxGeometry width="160" relative="1" as="geometry">
            <mxPoint x="568.14" y="220" as="sourcePoint" />
            <mxPoint x="557.5" y="60" as="targetPoint" />
          </mxGeometry>
        </mxCell>
        <mxCell id="o7bP2TjaXnmZU9dKq1O--29" value="" style="endArrow=block;endSize=16;endFill=0;html=1;rounded=0;fillColor=#647687;strokeColor=#314354;entryX=0;entryY=1;entryDx=0;entryDy=0;" parent="1" source="1g0vZA3ziAIKpFJKvP0T-42" target="o7bP2TjaXnmZU9dKq1O--27" edge="1">
          <mxGeometry width="160" relative="1" as="geometry">
            <mxPoint x="552.5" y="280" as="sourcePoint" />
            <mxPoint x="472.5" y="280" as="targetPoint" />
          </mxGeometry>
        </mxCell>
        <mxCell id="o7bP2TjaXnmZU9dKq1O--30" value="" style="endArrow=block;endSize=16;endFill=0;html=1;rounded=0;fillColor=#647687;strokeColor=#314354;entryX=1;entryY=1;entryDx=0;entryDy=0;exitX=0;exitY=0;exitDx=0;exitDy=0;" parent="1" source="SnJYljw1024A2q-Mxv-v-12" target="o7bP2TjaXnmZU9dKq1O--27" edge="1">
          <mxGeometry width="160" relative="1" as="geometry">
            <mxPoint x="562.5" y="358" as="sourcePoint" />
            <mxPoint x="454.5" y="308" as="targetPoint" />
          </mxGeometry>
        </mxCell>
        <mxCell id="o7bP2TjaXnmZU9dKq1O--31" value="Register End User" style="ellipse;whiteSpace=wrap;html=1;fillColor=#647687;strokeColor=#314354;fontStyle=1;fontColor=#ffffff;" parent="1" vertex="1">
          <mxGeometry x="360" y="-260" width="120" height="80" as="geometry" />
        </mxCell>
        <mxCell id="o7bP2TjaXnmZU9dKq1O--32" value="Register Content Creator" style="ellipse;whiteSpace=wrap;html=1;fillColor=#647687;strokeColor=#314354;fontStyle=1;fontColor=#ffffff;" parent="1" vertex="1">
          <mxGeometry x="545" y="-54.22000000000003" width="120" height="80" as="geometry" />
        </mxCell>
        <mxCell id="o7bP2TjaXnmZU9dKq1O--33" value="" style="endArrow=block;endSize=16;endFill=0;html=1;rounded=0;fillColor=#647687;strokeColor=#314354;exitX=0.046;exitY=0.69;exitDx=0;exitDy=0;entryX=1;entryY=0;entryDx=0;entryDy=0;exitPerimeter=0;" parent="1" source="o7bP2TjaXnmZU9dKq1O--37" target="o7bP2TjaXnmZU9dKq1O--12" edge="1">
          <mxGeometry width="160" relative="1" as="geometry">
            <mxPoint x="377.57359312882727" y="-140.00427124744851" as="sourcePoint" />
            <mxPoint x="292.42640687119274" y="-123.43572875253835" as="targetPoint" />
          </mxGeometry>
        </mxCell>
        <mxCell id="o7bP2TjaXnmZU9dKq1O--34" value="" style="endArrow=block;endSize=16;endFill=0;html=1;rounded=0;fillColor=#647687;strokeColor=#314354;exitX=0;exitY=1;exitDx=0;exitDy=0;" parent="1" source="o7bP2TjaXnmZU9dKq1O--6" target="o7bP2TjaXnmZU9dKq1O--10" edge="1">
          <mxGeometry width="160" relative="1" as="geometry">
            <mxPoint x="545" y="-101.72000000000003" as="sourcePoint" />
            <mxPoint x="506" y="-171.72000000000003" as="targetPoint" />
          </mxGeometry>
        </mxCell>
        <mxCell id="o7bP2TjaXnmZU9dKq1O--35" value="" style="endArrow=block;endSize=16;endFill=0;html=1;rounded=0;fillColor=#647687;strokeColor=#314354;exitX=0;exitY=0.5;exitDx=0;exitDy=0;entryX=1;entryY=0.5;entryDx=0;entryDy=0;" parent="1" source="o7bP2TjaXnmZU9dKq1O--32" target="o7bP2TjaXnmZU9dKq1O--10" edge="1">
          <mxGeometry width="160" relative="1" as="geometry">
            <mxPoint x="555" y="-91.22000000000003" as="sourcePoint" />
            <mxPoint x="486" y="-41.22000000000003" as="targetPoint" />
          </mxGeometry>
        </mxCell>
        <mxCell id="o7bP2TjaXnmZU9dKq1O--37" value="Edit&amp;nbsp;&lt;div&gt;Content Creator&lt;br&gt;User Data&lt;/div&gt;" style="ellipse;whiteSpace=wrap;html=1;fillColor=#647687;strokeColor=#314354;fontStyle=1;fontColor=#ffffff;" parent="1" vertex="1">
          <mxGeometry x="360" y="-350" width="120" height="80" as="geometry" />
        </mxCell>
        <mxCell id="o7bP2TjaXnmZU9dKq1O--38" value="" style="endArrow=block;endSize=16;endFill=0;html=1;rounded=0;fillColor=#647687;strokeColor=#314354;exitX=0;exitY=0.5;exitDx=0;exitDy=0;entryX=1;entryY=0.5;entryDx=0;entryDy=0;" parent="1" source="o7bP2TjaXnmZU9dKq1O--31" target="o7bP2TjaXnmZU9dKq1O--12" edge="1">
          <mxGeometry width="160" relative="1" as="geometry">
            <mxPoint x="351" y="-285" as="sourcePoint" />
            <mxPoint x="302" y="-238" as="targetPoint" />
          </mxGeometry>
        </mxCell>
        <mxCell id="o7bP2TjaXnmZU9dKq1O--44" value="Remove Another Users Comments" style="ellipse;whiteSpace=wrap;html=1;fillColor=#6d8764;strokeColor=#3A5431;fontStyle=1;fontColor=#ffffff;" parent="1" vertex="1">
          <mxGeometry x="342.5" y="137.5" width="120" height="80" as="geometry" />
        </mxCell>
        <mxCell id="o7bP2TjaXnmZU9dKq1O--46" value="" style="endArrow=none;html=1;rounded=0;fontStyle=1;entryX=0;entryY=0.5;entryDx=0;entryDy=0;" parent="1" source="1g0vZA3ziAIKpFJKvP0T-3" target="o7bP2TjaXnmZU9dKq1O--44" edge="1">
          <mxGeometry width="50" height="50" relative="1" as="geometry">
            <mxPoint x="130" y="137.5" as="sourcePoint" />
            <mxPoint x="338" y="223.5" as="targetPoint" />
          </mxGeometry>
        </mxCell>
        <mxCell id="o7bP2TjaXnmZU9dKq1O--50" value="Remove Content Comment" style="ellipse;whiteSpace=wrap;html=1;fillColor=#6d8764;strokeColor=#3A5431;fontStyle=1;fontColor=#ffffff;" parent="1" vertex="1">
          <mxGeometry x="530" y="-640" width="120" height="80" as="geometry" />
        </mxCell>
        <mxCell id="o7bP2TjaXnmZU9dKq1O--51" value="Add Content Comment" style="ellipse;whiteSpace=wrap;html=1;fillColor=#6d8764;strokeColor=#3A5431;fontStyle=1;fontColor=#ffffff;" parent="1" vertex="1">
          <mxGeometry x="530" y="-460" width="120" height="80" as="geometry" />
        </mxCell>
        <mxCell id="o7bP2TjaXnmZU9dKq1O--52" value="" style="endArrow=none;html=1;rounded=0;strokeColor=#FFFFFF;" parent="1" edge="1">
          <mxGeometry width="50" height="50" relative="1" as="geometry">
            <mxPoint x="810" y="500" as="sourcePoint" />
            <mxPoint x="800" y="-530" as="targetPoint" />
          </mxGeometry>
        </mxCell>
        <mxCell id="o7bP2TjaXnmZU9dKq1O--39" value="Edit Conrent Comment" style="ellipse;whiteSpace=wrap;html=1;fillColor=#f5f5f5;strokeColor=#666666;fontStyle=1;fontColor=#333333;" parent="1" vertex="1">
          <mxGeometry x="530" y="-552.5" width="120" height="80" as="geometry" />
        </mxCell>
        <mxCell id="o7bP2TjaXnmZU9dKq1O--53" value="" style="endArrow=block;endSize=16;endFill=0;html=1;rounded=0;fillColor=#6d8764;strokeColor=#3A5431;exitX=-0.022;exitY=0.579;exitDx=0;exitDy=0;entryX=1;entryY=0;entryDx=0;entryDy=0;exitPerimeter=0;" parent="1" source="o7bP2TjaXnmZU9dKq1O--50" target="o7bP2TjaXnmZU9dKq1O--1" edge="1">
          <mxGeometry width="160" relative="1" as="geometry">
            <mxPoint x="559.5" y="-492.5" as="sourcePoint" />
            <mxPoint x="485.5" y="-445.5" as="targetPoint" />
          </mxGeometry>
        </mxCell>
        <mxCell id="o7bP2TjaXnmZU9dKq1O--54" value="" style="endArrow=block;endSize=16;endFill=0;html=1;rounded=0;fillColor=#f5f5f5;strokeColor=#666666;entryX=1;entryY=0.5;entryDx=0;entryDy=0;exitX=0;exitY=0.5;exitDx=0;exitDy=0;" parent="1" source="o7bP2TjaXnmZU9dKq1O--39" target="o7bP2TjaXnmZU9dKq1O--1" edge="1">
          <mxGeometry width="160" relative="1" as="geometry">
            <mxPoint x="530" y="-520" as="sourcePoint" />
            <mxPoint x="480" y="-470" as="targetPoint" />
          </mxGeometry>
        </mxCell>
        <mxCell id="o7bP2TjaXnmZU9dKq1O--55" value="" style="endArrow=block;endSize=16;endFill=0;html=1;rounded=0;fillColor=#6d8764;strokeColor=#3A5431;entryX=1;entryY=1;entryDx=0;entryDy=0;exitX=0;exitY=0.5;exitDx=0;exitDy=0;" parent="1" source="o7bP2TjaXnmZU9dKq1O--51" target="o7bP2TjaXnmZU9dKq1O--1" edge="1">
          <mxGeometry width="160" relative="1" as="geometry">
            <mxPoint x="540" y="-502" as="sourcePoint" />
            <mxPoint x="475" y="-502" as="targetPoint" />
          </mxGeometry>
        </mxCell>
        <mxCell id="o7bP2TjaXnmZU9dKq1O--58" value="Create Another Administrator Account" style="ellipse;whiteSpace=wrap;html=1;fillColor=#647687;strokeColor=#314354;fontStyle=1;fontColor=#ffffff;" parent="1" vertex="1">
          <mxGeometry x="510" y="230" width="120" height="80" as="geometry" />
        </mxCell>
        <mxCell id="o7bP2TjaXnmZU9dKq1O--59" value="" style="endArrow=block;endSize=16;endFill=0;html=1;rounded=0;fillColor=#647687;strokeColor=#314354;entryX=1;entryY=0.5;entryDx=0;entryDy=0;exitX=0;exitY=0.5;exitDx=0;exitDy=0;" parent="1" source="o7bP2TjaXnmZU9dKq1O--58" target="o7bP2TjaXnmZU9dKq1O--27" edge="1">
          <mxGeometry width="160" relative="1" as="geometry">
            <mxPoint x="515" y="382" as="sourcePoint" />
            <mxPoint x="455" y="308" as="targetPoint" />
          </mxGeometry>
        </mxCell>
      </root>
    </mxGraphModel>
  </diagram>
</mxfile>
